<svg width="30" height="28" viewBox="0 0 30 28" fill="none" xmlns="http://www.w3.org/2000/svg">
                    <path d="M27.1875 14H2.8125C2.06658 14 1.35121 14.2963 0.823762 14.8238C0.296316 15.3512 0 16.0666 0 16.8125C0 17.5584 0.296316 18.2738 0.823762 18.8012C1.35121 19.3287 2.06658 19.625 2.8125 19.625H27.1875C27.9334 19.625 28.6488 19.3287 29.1762 18.8012C29.7037 18.2738 30 17.5584 30 16.8125C30 16.0666 29.7037 15.3512 29.1762 14.8238C28.6488 14.2963 27.9334 14 27.1875 14ZM28.125 21.5H1.875C1.62636 21.5 1.3879 21.5988 1.21209 21.7746C1.03627 21.9504 0.9375 22.1889 0.9375 22.4375V23.375C0.9375 24.3696 1.33259 25.3234 2.03585 26.0266C2.73911 26.7299 3.69294 27.125 4.6875 27.125H25.3125C26.3071 27.125 27.2609 26.7299 27.9641 26.0266C28.6674 25.3234 29.0625 24.3696 29.0625 23.375V22.4375C29.0625 22.1889 28.9637 21.9504 28.7879 21.7746C28.6121 21.5988 28.3736 21.5 28.125 21.5ZM3.43594 12.125H26.5641C28.5896 12.125 29.7645 9.55273 28.6043 7.67891C26.25 3.875 21.0674 0.880859 15 0.875C8.9332 0.880859 3.75 3.875 1.3957 7.67832C0.234375 9.55215 1.41035 12.125 3.43594 12.125ZM22.5 5.5625C22.6854 5.5625 22.8667 5.61748 23.0208 5.7205C23.175 5.82351 23.2952 5.96993 23.3661 6.14123C23.4371 6.31254 23.4557 6.50104 23.4195 6.6829C23.3833 6.86475 23.294 7.0318 23.1629 7.16291C23.0318 7.29402 22.8648 7.38331 22.6829 7.41949C22.501 7.45566 22.3125 7.43709 22.1412 7.36614C21.9699 7.29518 21.8235 7.17502 21.7205 7.02085C21.6175 6.86668 21.5625 6.68542 21.5625 6.5C21.5625 6.25136 21.6613 6.0129 21.8371 5.83709C22.0129 5.66127 22.2514 5.5625 22.5 5.5625ZM15 3.6875C15.1854 3.6875 15.3667 3.74248 15.5208 3.8455C15.675 3.94851 15.7952 4.09493 15.8661 4.26623C15.9371 4.43754 15.9557 4.62604 15.9195 4.8079C15.8833 4.98975 15.794 5.1568 15.6629 5.28791C15.5318 5.41902 15.3648 5.50831 15.1829 5.54449C15.001 5.58066 14.8125 5.56209 14.6412 5.49114C14.4699 5.42018 14.3235 5.30002 14.2205 5.14585C14.1175 4.99168 14.0625 4.81042 14.0625 4.625C14.0625 4.37636 14.1613 4.1379 14.3371 3.96209C14.5129 3.78627 14.7514 3.6875 15 3.6875ZM7.5 5.5625C7.68542 5.5625 7.86668 5.61748 8.02085 5.7205C8.17502 5.82351 8.29518 5.96993 8.36614 6.14123C8.43709 6.31254 8.45566 6.50104 8.41949 6.6829C8.38331 6.86475 8.29402 7.0318 8.16291 7.16291C8.0318 7.29402 7.86475 7.38331 7.6829 7.41949C7.50104 7.45566 7.31254 7.43709 7.14123 7.36614C6.96993 7.29518 6.82351 7.17502 6.7205 7.02085C6.61748 6.86668 6.5625 6.68542 6.5625 6.5C6.5625 6.25136 6.66127 6.0129 6.83709 5.83709C7.0129 5.66127 7.25136 5.5625 7.5 5.5625Z" fill="white"></path>
                </svg>