<svg width="38" height="37" viewBox="0 0 38 37" fill="none" xmlns="http://www.w3.org/2000/svg">
<g clip-path="url(#clip0_1_216)" filter="url(#filter0_d_1_216)">
<path d="M31.1875 15H6.8125C6.06658 15 5.35121 15.2963 4.82376 15.8238C4.29632 16.3512 4 17.0666 4 17.8125C4 18.5584 4.29632 19.2738 4.82376 19.8012C5.35121 20.3287 6.06658 20.625 6.8125 20.625H31.1875C31.9334 20.625 32.6488 20.3287 33.1762 19.8012C33.7037 19.2738 34 18.5584 34 17.8125C34 17.0666 33.7037 16.3512 33.1762 15.8238C32.6488 15.2963 31.9334 15 31.1875 15ZM32.125 22.5H5.875C5.62636 22.5 5.3879 22.5988 5.21209 22.7746C5.03627 22.9504 4.9375 23.1889 4.9375 23.4375V24.375C4.9375 25.3696 5.33259 26.3234 6.03585 27.0266C6.73911 27.7299 7.69294 28.125 8.6875 28.125H29.3125C30.3071 28.125 31.2609 27.7299 31.9641 27.0266C32.6674 26.3234 33.0625 25.3696 33.0625 24.375V23.4375C33.0625 23.1889 32.9637 22.9504 32.7879 22.7746C32.6121 22.5988 32.3736 22.5 32.125 22.5ZM7.43594 13.125H30.5641C32.5896 13.125 33.7645 10.5527 32.6043 8.67891C30.25 4.875 25.0674 1.88086 19 1.875C12.9332 1.88086 7.75 4.875 5.3957 8.67832C4.23438 10.5521 5.41035 13.125 7.43594 13.125ZM26.5 6.5625C26.6854 6.5625 26.8667 6.61748 27.0208 6.7205C27.175 6.82351 27.2952 6.96993 27.3661 7.14123C27.4371 7.31254 27.4557 7.50104 27.4195 7.6829C27.3833 7.86475 27.294 8.0318 27.1629 8.16291C27.0318 8.29402 26.8648 8.38331 26.6829 8.41949C26.501 8.45566 26.3125 8.43709 26.1412 8.36614C25.9699 8.29518 25.8235 8.17502 25.7205 8.02085C25.6175 7.86668 25.5625 7.68542 25.5625 7.5C25.5625 7.25136 25.6613 7.0129 25.8371 6.83709C26.0129 6.66127 26.2514 6.5625 26.5 6.5625ZM19 4.6875C19.1854 4.6875 19.3667 4.74248 19.5208 4.8455C19.675 4.94851 19.7952 5.09493 19.8661 5.26623C19.9371 5.43754 19.9557 5.62604 19.9195 5.8079C19.8833 5.98975 19.794 6.1568 19.6629 6.28791C19.5318 6.41902 19.3648 6.50831 19.1829 6.54449C19.001 6.58066 18.8125 6.56209 18.6412 6.49114C18.4699 6.42018 18.3235 6.30002 18.2205 6.14585C18.1175 5.99168 18.0625 5.81042 18.0625 5.625C18.0625 5.37636 18.1613 5.1379 18.3371 4.96209C18.5129 4.78627 18.7514 4.6875 19 4.6875ZM11.5 6.5625C11.6854 6.5625 11.8667 6.61748 12.0208 6.7205C12.175 6.82351 12.2952 6.96993 12.3661 7.14123C12.4371 7.31254 12.4557 7.50104 12.4195 7.6829C12.3833 7.86475 12.294 8.0318 12.1629 8.16291C12.0318 8.29402 11.8648 8.38331 11.6829 8.41949C11.501 8.45566 11.3125 8.43709 11.1412 8.36614C10.9699 8.29518 10.8235 8.17502 10.7205 8.02085C10.6175 7.86668 10.5625 7.68542 10.5625 7.5C10.5625 7.25136 10.6613 7.0129 10.8371 6.83709C11.0129 6.66127 11.2514 6.5625 11.5 6.5625Z" fill="white"/>
</g>
<defs>
<filter id="filter0_d_1_216" x="0" y="0" width="38" height="38" filterUnits="userSpaceOnUse" color-interpolation-filters="sRGB">
<feFlood flood-opacity="0" result="BackgroundImageFix"/>
<feColorMatrix in="SourceAlpha" type="matrix" values="0 0 0 0 0 0 0 0 0 0 0 0 0 0 0 0 0 0 127 0" result="hardAlpha"/>
<feOffset dy="4"/>
<feGaussianBlur stdDeviation="2"/>
<feComposite in2="hardAlpha" operator="out"/>
<feColorMatrix type="matrix" values="0 0 0 0 0 0 0 0 0 0 0 0 0 0 0 0 0 0 0.25 0"/>
<feBlend mode="normal" in2="BackgroundImageFix" result="effect1_dropShadow_1_216"/>
<feBlend mode="normal" in="SourceGraphic" in2="effect1_dropShadow_1_216" result="shape"/>
</filter>
<clipPath id="clip0_1_216">
<rect width="30" height="30" fill="white" transform="translate(4)"/>
</clipPath>
</defs>
</svg>
