<svg width="40" height="40" viewBox="0 0 40 40" fill="none" xmlns="http://www.w3.org/2000/svg">
<g id="uil:blogger">
<path id="Vector" d="M16.1833 17.4333H19.915C20.2558 17.4333 20.5827 17.298 20.8236 17.057C21.0646 16.816 21.2 16.4891 21.2 16.1483C21.2 15.8075 21.0646 15.4807 20.8236 15.2397C20.5827 14.9987 20.2558 14.8633 19.915 14.8633H16.1833C15.8425 14.8633 15.5157 14.9987 15.2747 15.2397C15.0337 15.4807 14.8983 15.8075 14.8983 16.1483C14.8983 16.4891 15.0337 16.816 15.2747 17.057C15.5157 17.298 15.8425 17.4333 16.1833 17.4333ZM32.38 3.33667H7.59167C6.46011 3.34106 5.37614 3.79252 4.576 4.59266C3.77586 5.3928 3.3244 6.47677 3.32001 7.60833V32.3967C3.32396 33.5285 3.77522 34.6129 4.57541 35.4134C5.3756 36.2139 6.45982 36.6656 7.59167 36.67H32.38C33.5121 36.666 34.5968 36.2146 35.3973 35.414C36.1979 34.6135 36.6494 33.5288 36.6533 32.3967V7.60833C36.6489 6.47648 36.1973 5.39226 35.3968 4.59207C34.5963 3.79188 33.5119 3.34062 32.38 3.33667ZM30.5933 19.4667L30.56 23.925C30.5473 25.7035 29.8333 27.4052 28.5732 28.6603C27.313 29.9155 25.6086 30.6227 23.83 30.6283H16.0967C14.3163 30.6244 12.6095 29.9172 11.3481 28.6608C10.0866 27.4043 9.37266 25.7004 9.36167 23.92V16.095C9.37178 14.3133 10.0854 12.6077 11.3472 11.3497C12.6089 10.0917 14.3166 9.38314 16.0983 9.37833H20.8033C21.8874 9.56654 22.9162 9.99308 23.8155 10.6272C24.7147 11.2612 25.462 12.0871 26.0033 13.045C26.3742 13.749 26.5805 14.528 26.6067 15.3233C26.72 16.1667 26.7783 16.7917 27.1567 17.14C27.69 17.6217 29.67 17.2967 30.0617 17.6033L30.3583 17.8367L30.5417 18.205L30.6 18.5017L30.5933 19.4667ZM23.765 22.5717H16.1833C15.8518 22.5717 15.5339 22.7034 15.2995 22.9378C15.065 23.1722 14.9333 23.4901 14.9333 23.8217C14.9333 24.1532 15.065 24.4711 15.2995 24.7056C15.5339 24.94 15.8518 25.0717 16.1833 25.0717H23.765C24.0965 25.0717 24.4145 24.94 24.6489 24.7056C24.8833 24.4711 25.015 24.1532 25.015 23.8217C25.015 23.4901 24.8833 23.1722 24.6489 22.9378C24.4145 22.7034 24.0965 22.5717 23.765 22.5717Z" fill="white"/>
</g>
</svg>
