<svg width="30" height="30" viewBox="0 0 30 30" fill="none" xmlns="http://www.w3.org/2000/svg">
<g id="mdi:moon-waning-crescent">
<path id="Vector" d="M2.5 15C2.49988 16.9627 2.96194 18.8979 3.84876 20.6488C4.73559 22.3997 6.02225 23.9172 7.60459 25.0784C9.18693 26.2396 11.0205 27.0119 12.9568 27.3327C14.8931 27.6535 16.8777 27.5138 18.75 26.925C16.212 26.1274 13.9946 24.5409 12.4205 22.3962C10.8464 20.2514 9.99758 17.6604 9.99758 15C9.99758 12.3396 10.8464 9.74863 12.4205 7.60391C13.9946 5.45919 16.212 3.87263 18.75 3.07503C16.8777 2.48622 14.8931 2.34657 12.9568 2.66739C11.0205 2.98821 9.18693 3.76048 7.60459 4.92167C6.02225 6.08287 4.73559 7.60035 3.84876 9.35127C2.96194 11.1022 2.49988 13.0373 2.5 15Z" fill="white"/>
</g>
</svg>
