<svg width="36" height="36" viewBox="0 0 36 36" fill="none" xmlns="http://www.w3.org/2000/svg">
<g id="material-symbols:light-mode">
<path id="Vector" d="M18 25.5C15.925 25.5 14.156 24.7685 12.693 23.3055C11.23 21.8425 10.499 20.074 10.5 18C10.5 15.925 11.2315 14.156 12.6945 12.693C14.1575 11.23 15.926 10.499 18 10.5C20.075 10.5 21.844 11.2315 23.307 12.6945C24.77 14.1575 25.501 15.926 25.5 18C25.5 20.075 24.7685 21.844 23.3055 23.307C21.8425 24.77 20.074 25.501 18 25.5ZM3.00001 19.5C2.57501 19.5 2.21851 19.356 1.93051 19.068C1.64251 18.78 1.49901 18.424 1.50001 18C1.50001 17.575 1.64401 17.2185 1.93201 16.9305C2.22001 16.6425 2.57601 16.499 3.00001 16.5H6.00001C6.42501 16.5 6.78151 16.644 7.06951 16.932C7.35751 17.22 7.50101 17.576 7.5 18C7.5 18.425 7.35601 18.7815 7.06801 19.0695C6.78 19.3575 6.42401 19.501 6.00001 19.5H3.00001ZM30 19.5C29.575 19.5 29.2185 19.356 28.9305 19.068C28.6425 18.78 28.499 18.424 28.5 18C28.5 17.575 28.644 17.2185 28.932 16.9305C29.22 16.6425 29.576 16.499 30 16.5H33C33.425 16.5 33.7815 16.644 34.0695 16.932C34.3575 17.22 34.501 17.576 34.5 18C34.5 18.425 34.356 18.7815 34.068 19.0695C33.78 19.3575 33.424 19.501 33 19.5H30ZM18 7.5C17.575 7.5 17.2185 7.356 16.9305 7.068C16.6425 6.78 16.499 6.424 16.5 6V3C16.5 2.575 16.644 2.2185 16.932 1.9305C17.22 1.6425 17.576 1.499 18 1.5C18.425 1.5 18.7815 1.644 19.0695 1.932C19.3575 2.22 19.501 2.576 19.5 3V6C19.5 6.425 19.356 6.7815 19.068 7.0695C18.78 7.3575 18.424 7.501 18 7.5ZM18 34.5C17.575 34.5 17.2185 34.356 16.9305 34.068C16.6425 33.78 16.499 33.424 16.5 33V30C16.5 29.575 16.644 29.2185 16.932 28.9305C17.22 28.6425 17.576 28.499 18 28.5C18.425 28.5 18.7815 28.644 19.0695 28.932C19.3575 29.22 19.501 29.576 19.5 30V33C19.5 33.425 19.356 33.7815 19.068 34.0695C18.78 34.3575 18.424 34.501 18 34.5ZM8.47501 10.575L6.8625 9C6.56251 8.725 6.41851 8.375 6.43051 7.95C6.44251 7.525 6.5865 7.1625 6.8625 6.8625C7.16251 6.5625 7.52501 6.4125 7.95001 6.4125C8.37501 6.4125 8.72501 6.5625 9 6.8625L10.575 8.475C10.85 8.775 10.9875 9.125 10.9875 9.525C10.9875 9.925 10.85 10.275 10.575 10.575C10.3 10.875 9.9565 11.019 9.54451 11.007C9.1325 10.995 8.77601 10.851 8.47501 10.575ZM27 29.1375L25.425 27.525C25.15 27.225 25.0125 26.8685 25.0125 26.4555C25.0125 26.0425 25.15 25.699 25.425 25.425C25.7 25.125 26.044 24.9815 26.457 24.9945C26.87 25.0075 27.226 25.151 27.525 25.425L29.1375 27C29.4375 27.275 29.5815 27.625 29.5695 28.05C29.5575 28.475 29.4135 28.8375 29.1375 29.1375C28.8375 29.4375 28.475 29.5875 28.05 29.5875C27.625 29.5875 27.275 29.4375 27 29.1375ZM25.425 10.575C25.125 10.3 24.981 9.9565 24.993 9.5445C25.005 9.1325 25.149 8.776 25.425 8.475L27 6.8625C27.275 6.5625 27.625 6.4185 28.05 6.4305C28.475 6.4425 28.8375 6.5865 29.1375 6.8625C29.4375 7.1625 29.5875 7.525 29.5875 7.95C29.5875 8.375 29.4375 8.725 29.1375 9L27.525 10.575C27.225 10.85 26.875 10.9875 26.475 10.9875C26.075 10.9875 25.725 10.85 25.425 10.575ZM6.8625 29.1375C6.56251 28.8375 6.41251 28.475 6.41251 28.05C6.41251 27.625 6.56251 27.275 6.8625 27L8.47501 25.425C8.77501 25.15 9.131 25.0125 9.543 25.0125C9.955 25.0125 10.299 25.15 10.575 25.425C10.875 25.7 11.019 26.044 11.007 26.457C10.995 26.87 10.851 27.226 10.575 27.525L9 29.1375C8.72501 29.4375 8.37501 29.5815 7.95001 29.5695C7.52501 29.5575 7.16251 29.4135 6.8625 29.1375Z" fill="white"/>
</g>
</svg>
